{
    "asset" : {
        "generator" : "Khronos glTF Blender I/O v1.5.17",
        "version" : "2.0"
    },
    "scene" : 0,
    "scenes" : [
        {
            "name" : "Scene",
            "nodes" : [
                7
            ]
        }
    ],
    "nodes" : [
        {
            "mesh" : 0,
            "name" : "Arme",
            "rotation" : [
                0.5,
                0.5,
                -0.5,
                0.5
            ],
            "scale" : [
                0.6919288039207458,
                0.6919288039207458,
                0.6919287443161011
            ],
            "translation" : [
                0,
                1.1881542205810547,
                -0.0975956916809082
            ]
        },
        {
            "mesh" : 1,
            "name" : "Auge",
            "scale" : [
                0.31200844049453735,
                0.31200844049453735,
                0.31200844049453735
            ],
            "translation" : [
                0.0016806012718006968,
                2.0296285152435303,
                2.445875644683838
            ]
        },
        {
            "mesh" : 2,
            "name" : "Front",
            "scale" : [
                1.5505344867706299,
                1.5505344867706299,
                1.5505344867706299
            ],
            "translation" : [
                0,
                0.16672804951667786,
                -0.009644031524658203
            ]
        },
        {
            "mesh" : 3,
            "name" : "Reifen",
            "rotation" : [
                0.6409245133399963,
                0.6407862305641174,
                -0.2999837100505829,
                0.29768872261047363
            ],
            "scale" : [
                0.8928306698799133,
                0.8928306102752686,
                0.8928306698799133
            ],
            "translation" : [
                0,
                -3.587186336517334,
                0
            ]
        },
        {
            "mesh" : 4,
            "name" : "seitenteile",
            "scale" : [
                0.9601609110832214,
                0.9601609110832214,
                0.9601609110832214
            ],
            "translation" : [
                0,
                -2.1499626636505127,
                0
            ]
        },
        {
            "mesh" : 5,
            "name" : "top",
            "scale" : [
                1.0745881795883179,
                1.0745881795883179,
                1.0745881795883179
            ],
            "translation" : [
                0,
                3.1590945720672607,
                3.4130594730377197
            ]
        },
        {
            "mesh" : 6,
            "name" : "verbindung reifen",
            "rotation" : [
                0.5,
                0.5,
                -0.5,
                0.5
            ],
            "scale" : [
                0.2228584885597229,
                0.2228584885597229,
                0.2228584885597229
            ],
            "translation" : [
                0,
                -3.587186336517334,
                0
            ]
        },
        {
            "children" : [
                0,
                1,
                2,
                3,
                4,
                5,
                6
            ],
            "mesh" : 7,
            "name" : "Body",
            "scale" : [
                0.45518070459365845,
                0.4551806151866913,
                0.45518070459365845
            ],
            "translation" : [
                0,
                0,
                -2.3399996757507324
            ]
        }
    ],
    "animations" : [
        {
            "channels" : [
                {
                    "sampler" : 0,
                    "target" : {
                        "node" : 7,
                        "path" : "translation"
                    }
                },
                {
                    "sampler" : 1,
                    "target" : {
                        "node" : 7,
                        "path" : "rotation"
                    }
                }
            ],
            "name" : "BodyAction",
            "samplers" : [
                {
                    "input" : 25,
                    "interpolation" : "LINEAR",
                    "output" : 26
                },
                {
                    "input" : 27,
                    "interpolation" : "STEP",
                    "output" : 28
                }
            ]
        },
        {
            "channels" : [
                {
                    "sampler" : 0,
                    "target" : {
                        "node" : 3,
                        "path" : "rotation"
                    }
                }
            ],
            "name" : "ReifenAction.001",
            "samplers" : [
                {
                    "input" : 27,
                    "interpolation" : "STEP",
                    "output" : 29
                }
            ]
        }
    ],
    "materials" : [
        {
            "doubleSided" : true,
            "name" : "Toon grey",
            "pbrMetallicRoughness" : {}
        },
        {
            "doubleSided" : true,
            "emissiveFactor" : [
                0,
                0.23379876818463785,
                1
            ],
            "name" : "Auge",
            "pbrMetallicRoughness" : {}
        },
        {
            "doubleSided" : true,
            "name" : "Toon Light Grey",
            "pbrMetallicRoughness" : {}
        },
        {
            "doubleSided" : true,
            "name" : "Toon reifen",
            "pbrMetallicRoughness" : {}
        },
        {
            "doubleSided" : true,
            "name" : "Metallgrau",
            "pbrMetallicRoughness" : {
                "baseColorFactor" : [
                    0.1491517871618271,
                    0.1491517871618271,
                    0.1491517871618271,
                    1
                ],
                "metallicFactor" : 0,
                "roughnessFactor" : 0.5
            }
        },
        {
            "doubleSided" : true,
            "name" : "Material.003",
            "pbrMetallicRoughness" : {}
        },
        {
            "doubleSided" : true,
            "name" : "Material.004",
            "pbrMetallicRoughness" : {}
        }
    ],
    "meshes" : [
        {
            "name" : "Circle.003",
            "primitives" : [
                {
                    "attributes" : {
                        "POSITION" : 0,
                        "NORMAL" : 1
                    },
                    "indices" : 2,
                    "material" : 0
                }
            ]
        },
        {
            "name" : "Sphere",
            "primitives" : [
                {
                    "attributes" : {
                        "POSITION" : 3,
                        "NORMAL" : 4
                    },
                    "indices" : 5,
                    "material" : 1
                }
            ]
        },
        {
            "name" : "Plane.039",
            "primitives" : [
                {
                    "attributes" : {
                        "POSITION" : 6,
                        "NORMAL" : 7
                    },
                    "indices" : 8,
                    "material" : 2
                }
            ]
        },
        {
            "name" : "Circle.001",
            "primitives" : [
                {
                    "attributes" : {
                        "POSITION" : 9,
                        "NORMAL" : 10
                    },
                    "indices" : 11,
                    "material" : 3
                }
            ]
        },
        {
            "name" : "Plane.033",
            "primitives" : [
                {
                    "attributes" : {
                        "POSITION" : 12,
                        "NORMAL" : 13
                    },
                    "indices" : 14,
                    "material" : 4
                }
            ]
        },
        {
            "name" : "Plane.032",
            "primitives" : [
                {
                    "attributes" : {
                        "POSITION" : 15,
                        "NORMAL" : 16
                    },
                    "indices" : 17,
                    "material" : 5
                }
            ]
        },
        {
            "name" : "Circle.002",
            "primitives" : [
                {
                    "attributes" : {
                        "POSITION" : 18,
                        "NORMAL" : 19
                    },
                    "indices" : 20,
                    "material" : 0
                }
            ]
        },
        {
            "name" : "Plane.040",
            "primitives" : [
                {
                    "attributes" : {
                        "POSITION" : 21,
                        "NORMAL" : 22,
                        "TEXCOORD_0" : 23
                    },
                    "indices" : 24,
                    "material" : 6
                }
            ]
        }
    ],
    "accessors" : [
        {
            "bufferView" : 0,
            "componentType" : 5126,
            "count" : 4484,
            "max" : [
                1.104945182800293,
                3.565366268157959,
                4.075307369232178
            ],
            "min" : [
                -6.192142963409424,
                -3.565366268157959,
                -0.3294069170951843
            ],
            "type" : "VEC3"
        },
        {
            "bufferView" : 1,
            "componentType" : 5126,
            "count" : 4484,
            "type" : "VEC3"
        },
        {
            "bufferView" : 2,
            "componentType" : 5123,
            "count" : 6936,
            "type" : "SCALAR"
        },
        {
            "bufferView" : 3,
            "componentType" : 5126,
            "count" : 1120,
            "max" : [
                1.000000238418579,
                1,
                1.0000003576278687
            ],
            "min" : [
                -0.9999998211860657,
                -1,
                -1.6222457885742188
            ],
            "type" : "VEC3"
        },
        {
            "bufferView" : 4,
            "componentType" : 5126,
            "count" : 1120,
            "type" : "VEC3"
        },
        {
            "bufferView" : 5,
            "componentType" : 5123,
            "count" : 1632,
            "type" : "SCALAR"
        },
        {
            "bufferView" : 6,
            "componentType" : 5126,
            "count" : 1672,
            "max" : [
                0.4062139391899109,
                1.559309482574463,
                1.6811823844909668
            ],
            "min" : [
                -0.4062139391899109,
                -0.18338574469089508,
                1.17746901512146
            ],
            "type" : "VEC3"
        },
        {
            "bufferView" : 7,
            "componentType" : 5126,
            "count" : 1672,
            "type" : "VEC3"
        },
        {
            "bufferView" : 8,
            "componentType" : 5123,
            "count" : 2670,
            "type" : "SCALAR"
        },
        {
            "bufferView" : 9,
            "componentType" : 5126,
            "count" : 3156,
            "max" : [
                1.8636929988861084,
                0.922478973865509,
                1.8643338680267334
            ],
            "min" : [
                -1.8652971982955933,
                -0.9916719198226929,
                -1.8627302646636963
            ],
            "type" : "VEC3"
        },
        {
            "bufferView" : 10,
            "componentType" : 5126,
            "count" : 3156,
            "type" : "VEC3"
        },
        {
            "bufferView" : 11,
            "componentType" : 5123,
            "count" : 5100,
            "type" : "SCALAR"
        },
        {
            "bufferView" : 12,
            "componentType" : 5126,
            "count" : 108,
            "max" : [
                1.3632596731185913,
                -0.2268080860376358,
                1.805342435836792
            ],
            "min" : [
                -1.3632596731185913,
                -1.1486681699752808,
                1.4319448471069336
            ],
            "type" : "VEC3"
        },
        {
            "bufferView" : 13,
            "componentType" : 5126,
            "count" : 108,
            "type" : "VEC3"
        },
        {
            "bufferView" : 14,
            "componentType" : 5123,
            "count" : 168,
            "type" : "SCALAR"
        },
        {
            "bufferView" : 15,
            "componentType" : 5126,
            "count" : 887,
            "max" : [
                3.2102010250091553,
                -0.10222768783569336,
                -0.33538419008255005
            ],
            "min" : [
                -3.2038893699645996,
                -1.6674244403839111,
                -5.036202430725098
            ],
            "type" : "VEC3"
        },
        {
            "bufferView" : 16,
            "componentType" : 5126,
            "count" : 887,
            "type" : "VEC3"
        },
        {
            "bufferView" : 17,
            "componentType" : 5123,
            "count" : 1596,
            "type" : "SCALAR"
        },
        {
            "bufferView" : 18,
            "componentType" : 5126,
            "count" : 560,
            "max" : [
                0.8096520900726318,
                6.057252883911133,
                0.8094692230224609
            ],
            "min" : [
                -0.8098351955413818,
                -6.057252883911133,
                -8.262710571289062
            ],
            "type" : "VEC3"
        },
        {
            "bufferView" : 19,
            "componentType" : 5126,
            "count" : 560,
            "type" : "VEC3"
        },
        {
            "bufferView" : 20,
            "componentType" : 5123,
            "count" : 900,
            "type" : "SCALAR"
        },
        {
            "bufferView" : 21,
            "componentType" : 5126,
            "count" : 2909,
            "max" : [
                1.971092939376831,
                2.976494312286377,
                2.5522396564483643
            ],
            "min" : [
                -1.971092939376831,
                -3.2505905628204346,
                -2.3922319412231445
            ],
            "type" : "VEC3"
        },
        {
            "bufferView" : 22,
            "componentType" : 5126,
            "count" : 2909,
            "type" : "VEC3"
        },
        {
            "bufferView" : 23,
            "componentType" : 5126,
            "count" : 2909,
            "type" : "VEC2"
        },
        {
            "bufferView" : 24,
            "componentType" : 5123,
            "count" : 4656,
            "type" : "SCALAR"
        },
        {
            "bufferView" : 25,
            "componentType" : 5126,
            "count" : 201,
            "max" : [
                8.333333333333334
            ],
            "min" : [
                0
            ],
            "type" : "SCALAR"
        },
        {
            "bufferView" : 26,
            "componentType" : 5126,
            "count" : 201,
            "type" : "VEC3"
        },
        {
            "bufferView" : 27,
            "componentType" : 5126,
            "count" : 1,
            "max" : [
                0
            ],
            "min" : [
                0
            ],
            "type" : "SCALAR"
        },
        {
            "bufferView" : 28,
            "componentType" : 5126,
            "count" : 1,
            "type" : "VEC4"
        },
        {
            "bufferView" : 29,
            "componentType" : 5126,
            "count" : 1,
            "type" : "VEC4"
        }
    ],
    "bufferViews" : [
        {
            "buffer" : 0,
            "byteLength" : 53808,
            "byteOffset" : 0
        },
        {
            "buffer" : 0,
            "byteLength" : 53808,
            "byteOffset" : 53808
        },
        {
            "buffer" : 0,
            "byteLength" : 13872,
            "byteOffset" : 107616
        },
        {
            "buffer" : 0,
            "byteLength" : 13440,
            "byteOffset" : 121488
        },
        {
            "buffer" : 0,
            "byteLength" : 13440,
            "byteOffset" : 134928
        },
        {
            "buffer" : 0,
            "byteLength" : 3264,
            "byteOffset" : 148368
        },
        {
            "buffer" : 0,
            "byteLength" : 20064,
            "byteOffset" : 151632
        },
        {
            "buffer" : 0,
            "byteLength" : 20064,
            "byteOffset" : 171696
        },
        {
            "buffer" : 0,
            "byteLength" : 5340,
            "byteOffset" : 191760
        },
        {
            "buffer" : 0,
            "byteLength" : 37872,
            "byteOffset" : 197100
        },
        {
            "buffer" : 0,
            "byteLength" : 37872,
            "byteOffset" : 234972
        },
        {
            "buffer" : 0,
            "byteLength" : 10200,
            "byteOffset" : 272844
        },
        {
            "buffer" : 0,
            "byteLength" : 1296,
            "byteOffset" : 283044
        },
        {
            "buffer" : 0,
            "byteLength" : 1296,
            "byteOffset" : 284340
        },
        {
            "buffer" : 0,
            "byteLength" : 336,
            "byteOffset" : 285636
        },
        {
            "buffer" : 0,
            "byteLength" : 10644,
            "byteOffset" : 285972
        },
        {
            "buffer" : 0,
            "byteLength" : 10644,
            "byteOffset" : 296616
        },
        {
            "buffer" : 0,
            "byteLength" : 3192,
            "byteOffset" : 307260
        },
        {
            "buffer" : 0,
            "byteLength" : 6720,
            "byteOffset" : 310452
        },
        {
            "buffer" : 0,
            "byteLength" : 6720,
            "byteOffset" : 317172
        },
        {
            "buffer" : 0,
            "byteLength" : 1800,
            "byteOffset" : 323892
        },
        {
            "buffer" : 0,
            "byteLength" : 34908,
            "byteOffset" : 325692
        },
        {
            "buffer" : 0,
            "byteLength" : 34908,
            "byteOffset" : 360600
        },
        {
            "buffer" : 0,
            "byteLength" : 23272,
            "byteOffset" : 395508
        },
        {
            "buffer" : 0,
            "byteLength" : 9312,
            "byteOffset" : 418780
        },
        {
            "buffer" : 0,
            "byteLength" : 804,
            "byteOffset" : 428092
        },
        {
            "buffer" : 0,
            "byteLength" : 2412,
            "byteOffset" : 428896
        },
        {
            "buffer" : 0,
            "byteLength" : 4,
            "byteOffset" : 431308
        },
        {
            "buffer" : 0,
            "byteLength" : 16,
            "byteOffset" : 431312
        },
        {
            "buffer" : 0,
            "byteLength" : 16,
            "byteOffset" : 431328
        }
    ],
    "buffers" : [
        {
            "byteLength" : 431344,
            "uri" : "data:application/octet-stream;base64,"
        }
    ]
}
