{
    "asset" : {
        "generator" : "Khronos glTF Blender I/O v1.5.17",
        "version" : "2.0"
    },
    "extensionsUsed" : [
        "KHR_materials_transmission"
    ],
    "scene" : 0,
    "scenes" : [
        {
            "name" : "Scene",
            "nodes" : [
                1
            ]
        }
    ],
    "nodes" : [
        {
            "mesh" : 0,
            "name" : "Reifen",
            "rotation" : [
                0.6409245729446411,
                0.6407861709594727,
                -0.29998376965522766,
                0.29768872261047363
            ],
            "scale" : [
                0.8928306698799133,
                0.8928307294845581,
                0.8928306698799133
            ],
            "translation" : [
                -0.030271103605628014,
                -3.6953072547912598,
                -0.09331926703453064
            ]
        },
        {
            "children" : [
                0
            ],
            "name" : "Body",
            "scale" : [
                0.45518070459365845,
                0.4551806151866913,
                0.45518070459365845
            ]
        }
    ],
    "animations" : [
        {
            "channels" : [
                {
                    "sampler" : 0,
                    "target" : {
                        "node" : 0,
                        "path" : "translation"
                    }
                },
                {
                    "sampler" : 1,
                    "target" : {
                        "node" : 0,
                        "path" : "rotation"
                    }
                },
                {
                    "sampler" : 2,
                    "target" : {
                        "node" : 0,
                        "path" : "scale"
                    }
                }
            ],
            "name" : "ReifenAction",
            "samplers" : [
                {
                    "input" : 3,
                    "interpolation" : "STEP",
                    "output" : 4
                },
                {
                    "input" : 3,
                    "interpolation" : "STEP",
                    "output" : 5
                },
                {
                    "input" : 3,
                    "interpolation" : "STEP",
                    "output" : 6
                }
            ]
        }
    ],
    "materials" : [
        {
            "doubleSided" : true,
            "extensions" : {
                "KHR_materials_transmission" : {
                    "transmissionFactor" : 0.7242424488067627
                }
            },
            "name" : "Toon reifen",
            "pbrMetallicRoughness" : {
                "baseColorFactor" : [
                    0.0335688441991806,
                    0.0335688441991806,
                    0.0335688441991806,
                    1
                ],
                "metallicFactor" : 0,
                "roughnessFactor" : 0.8454545736312866
            }
        }
    ],
    "meshes" : [
        {
            "name" : "Circle.001",
            "primitives" : [
                {
                    "attributes" : {
                        "POSITION" : 0,
                        "NORMAL" : 1
                    },
                    "indices" : 2,
                    "material" : 0
                }
            ]
        }
    ],
    "accessors" : [
        {
            "bufferView" : 0,
            "componentType" : 5126,
            "count" : 3156,
            "max" : [
                1.8652852773666382,
                0.9564987421035767,
                1.9017000198364258
            ],
            "min" : [
                -1.8637049198150635,
                -0.9576521515846252,
                -1.825364112854004
            ],
            "type" : "VEC3"
        },
        {
            "bufferView" : 1,
            "componentType" : 5126,
            "count" : 3156,
            "type" : "VEC3"
        },
        {
            "bufferView" : 2,
            "componentType" : 5123,
            "count" : 5100,
            "type" : "SCALAR"
        },
        {
            "bufferView" : 3,
            "componentType" : 5126,
            "count" : 1,
            "max" : [
                0.125
            ],
            "min" : [
                0.125
            ],
            "type" : "SCALAR"
        },
        {
            "bufferView" : 4,
            "componentType" : 5126,
            "count" : 1,
            "type" : "VEC3"
        },
        {
            "bufferView" : 5,
            "componentType" : 5126,
            "count" : 1,
            "type" : "VEC4"
        },
        {
            "bufferView" : 6,
            "componentType" : 5126,
            "count" : 1,
            "type" : "VEC3"
        }
    ],
    "bufferViews" : [
        {
            "buffer" : 0,
            "byteLength" : 37872,
            "byteOffset" : 0
        },
        {
            "buffer" : 0,
            "byteLength" : 37872,
            "byteOffset" : 37872
        },
        {
            "buffer" : 0,
            "byteLength" : 10200,
            "byteOffset" : 75744
        },
        {
            "buffer" : 0,
            "byteLength" : 4,
            "byteOffset" : 85944
        },
        {
            "buffer" : 0,
            "byteLength" : 12,
            "byteOffset" : 85948
        },
        {
            "buffer" : 0,
            "byteLength" : 16,
            "byteOffset" : 85960
        },
        {
            "buffer" : 0,
            "byteLength" : 12,
            "byteOffset" : 85976
        }
    ],
    "buffers" : [
        {
            "byteLength" : 85988,
            "uri" : "data:application/octet-stream;base64,"
        }
    ]
}
