{
    "asset" : {
        "generator" : "Khronos glTF Blender I/O v1.5.17",
        "version" : "2.0"
    },
    "scene" : 0,
    "scenes" : [
        {
            "name" : "Scene",
            "nodes" : [
                0
            ]
        }
    ],
    "nodes" : [
        {
            "mesh" : 0,
            "name" : "Arme",
            "rotation" : [
                0.5,
                0.5,
                -0.5,
                0.5
            ],
            "scale" : [
                0.31495264172554016,
                0.31495264172554016,
                0.314952552318573
            ]
        }
    ],
    "materials" : [
        {
            "doubleSided" : true,
            "name" : "Toon grey",
            "pbrMetallicRoughness" : {
                "baseColorFactor" : [
                    0.08073203265666962,
                    0.08073203265666962,
                    0.08073203265666962,
                    1
                ],
                "metallicFactor" : 0.5121212005615234,
                "roughnessFactor" : 0.17878788709640503
            }
        }
    ],
    "meshes" : [
        {
            "name" : "Circle.003",
            "primitives" : [
                {
                    "attributes" : {
                        "POSITION" : 0,
                        "NORMAL" : 1
                    },
                    "indices" : 2,
                    "material" : 0
                }
            ]
        }
    ],
    "accessors" : [
        {
            "bufferView" : 0,
            "componentType" : 5126,
            "count" : 4504,
            "max" : [
                1.098147988319397,
                3.565366268157959,
                3.6365699768066406
            ],
            "min" : [
                -6.198940277099609,
                -3.565366268157959,
                -0.7681443691253662
            ],
            "type" : "VEC3"
        },
        {
            "bufferView" : 1,
            "componentType" : 5126,
            "count" : 4504,
            "type" : "VEC3"
        },
        {
            "bufferView" : 2,
            "componentType" : 5123,
            "count" : 6984,
            "type" : "SCALAR"
        }
    ],
    "bufferViews" : [
        {
            "buffer" : 0,
            "byteLength" : 54048,
            "byteOffset" : 0
        },
        {
            "buffer" : 0,
            "byteLength" : 54048,
            "byteOffset" : 54048
        },
        {
            "buffer" : 0,
            "byteLength" : 13968,
            "byteOffset" : 108096
        }
    ],
    "buffers" : [
        {
            "byteLength" : 122064,
            "uri" : "data:application/octet-stream;base64,"
        }
    ]
}
