{
    "asset" : {
        "generator" : "Khronos glTF Blender I/O v1.5.17",
        "version" : "2.0"
    },
    "scene" : 0,
    "scenes" : [
        {
            "name" : "Scene",
            "nodes" : [
                0
            ]
        }
    ],
    "nodes" : [
        {
            "mesh" : 0,
            "name" : "W\u00fcstenlandschaft",
            "scale" : [
                64.28770446777344,
                64.28770446777344,
                64.28770446777344
            ],
            "translation" : [
                0.0384746789932251,
                -8.424495697021484,
                0.5259634256362915
            ]
        }
    ],
    "materials" : [
        {
            "doubleSided" : true,
            "name" : "Material.001",
            "pbrMetallicRoughness" : {
                "metallicFactor" : 0,
                "roughnessFactor" : 0.800000011920929
            }
        }
    ],
    "meshes" : [
        {
            "name" : "Plane.001",
            "primitives" : [
                {
                    "attributes" : {
                        "POSITION" : 0,
                        "NORMAL" : 1,
                        "COLOR_0" : 2
                    },
                    "indices" : 3,
                    "material" : 0
                }
            ]
        }
    ],
    "accessors" : [
        {
            "bufferView" : 0,
            "componentType" : 5126,
            "count" : 7921,
            "max" : [
                1.0311928987503052,
                0.33453279733657837,
                1.025518536567688
            ],
            "min" : [
                -1.0115892887115479,
                0,
                -1.0127203464508057
            ],
            "type" : "VEC3"
        },
        {
            "bufferView" : 1,
            "componentType" : 5126,
            "count" : 7921,
            "type" : "VEC3"
        },
        {
            "bufferView" : 2,
            "componentType" : 5123,
            "count" : 7921,
            "normalized" : true,
            "type" : "VEC4"
        },
        {
            "bufferView" : 3,
            "componentType" : 5123,
            "count" : 46464,
            "type" : "SCALAR"
        }
    ],
    "bufferViews" : [
        {
            "buffer" : 0,
            "byteLength" : 95052,
            "byteOffset" : 0
        },
        {
            "buffer" : 0,
            "byteLength" : 95052,
            "byteOffset" : 95052
        },
        {
            "buffer" : 0,
            "byteLength" : 63368,
            "byteOffset" : 190104
        },
        {
            "buffer" : 0,
            "byteLength" : 92928,
            "byteOffset" : 253472
        }
    ],
    "buffers" : [
        {
            "byteLength" : 346400,
            "uri" : "data:application/octet-stream;base64,"
        }
    ]
}
