{
    "asset" : {
        "generator" : "Khronos glTF Blender I/O v1.5.17",
        "version" : "2.0"
    },
    "extensionsUsed" : [
        "KHR_materials_transmission"
    ],
    "scene" : 0,
    "scenes" : [
        {
            "name" : "Scene",
            "nodes" : [
                0
            ]
        }
    ],
    "nodes" : [
        {
            "mesh" : 0,
            "name" : "Reifen",
            "rotation" : [
                0.6409245133399963,
                0.6407862305641174,
                -0.2999839186668396,
                0.29768866300582886
            ],
            "scale" : [
                0.4063990116119385,
                0.40639933943748474,
                0.4063992202281952
            ]
        }
    ],
    "materials" : [
        {
            "doubleSided" : true,
            "extensions" : {
                "KHR_materials_transmission" : {
                    "transmissionFactor" : 0.7242424488067627
                }
            },
            "name" : "Toon reifen",
            "pbrMetallicRoughness" : {
                "baseColorFactor" : [
                    0.0335688441991806,
                    0.0335688441991806,
                    0.0335688441991806,
                    1
                ],
                "metallicFactor" : 0,
                "roughnessFactor" : 0.8454545736312866
            }
        }
    ],
    "meshes" : [
        {
            "name" : "Circle.001",
            "primitives" : [
                {
                    "attributes" : {
                        "POSITION" : 0,
                        "NORMAL" : 1
                    },
                    "indices" : 2,
                    "material" : 0
                }
            ]
        }
    ],
    "accessors" : [
        {
            "bufferView" : 0,
            "componentType" : 5126,
            "count" : 3146,
            "max" : [
                1.8576784133911133,
                0.956405520439148,
                1.874176025390625
            ],
            "min" : [
                -1.871311902999878,
                -0.9577447175979614,
                -1.8528879880905151
            ],
            "type" : "VEC3"
        },
        {
            "bufferView" : 1,
            "componentType" : 5126,
            "count" : 3146,
            "type" : "VEC3"
        },
        {
            "bufferView" : 2,
            "componentType" : 5123,
            "count" : 5100,
            "type" : "SCALAR"
        }
    ],
    "bufferViews" : [
        {
            "buffer" : 0,
            "byteLength" : 37752,
            "byteOffset" : 0
        },
        {
            "buffer" : 0,
            "byteLength" : 37752,
            "byteOffset" : 37752
        },
        {
            "buffer" : 0,
            "byteLength" : 10200,
            "byteOffset" : 75504
        }
    ],
    "buffers" : [
        {
            "byteLength" : 85704,
            "uri" : "data:application/octet-stream;base64,"
        }
    ]
}
